<svg width="32" height="33" viewBox="0 0 32 33" fill="none" xmlns="http://www.w3.org/2000/svg">
<g clip-path="url(#clip0_13_4771)">
<path d="M29.1434 2.21094H2.8577C2.22556 2.21094 1.71484 2.72165 1.71484 3.35379V29.6395C1.71484 30.2717 2.22556 30.7824 2.8577 30.7824H29.1434C29.7756 30.7824 30.2863 30.2717 30.2863 29.6395V3.35379C30.2863 2.72165 29.7756 2.21094 29.1434 2.21094ZM28.0006 28.4967H21.4256V19.7181H25.1398L25.697 15.4074H21.4256V12.6538C21.4256 11.4038 21.772 10.5538 23.5613 10.5538H25.8434V6.69665C25.447 6.64308 24.0934 6.52522 22.5148 6.52522C19.222 6.52522 16.9684 8.53594 16.9684 12.2252V15.4038H13.247V19.7145H16.972V28.4967H4.00056V4.49665H28.0006V28.4967Z" fill="white"/>
</g>
<defs>
<clipPath id="clip0_13_4771">
<rect width="32" height="32" fill="white" transform="translate(0 0.5)"/>
</clipPath>
</defs>
</svg>
