<svg width="32" height="33" viewBox="0 0 32 33" fill="none" xmlns="http://www.w3.org/2000/svg">
<g clip-path="url(#clip0_13_4769)">
<path d="M16.0001 12.3347C13.7064 12.3347 11.8345 14.2066 11.8345 16.5003C11.8345 18.7941 13.7064 20.666 16.0001 20.666C18.2939 20.666 20.1658 18.7941 20.1658 16.5003C20.1658 14.2066 18.2939 12.3347 16.0001 12.3347ZM28.4939 16.5003C28.4939 14.7753 28.5095 13.066 28.4126 11.3441C28.3158 9.34409 27.8595 7.56909 26.397 6.10659C24.9314 4.64097 23.1595 4.18784 21.1595 4.09097C19.4345 3.99409 17.7251 4.00972 16.0033 4.00972C14.2783 4.00972 12.5689 3.99409 10.847 4.09097C8.84702 4.18784 7.07202 4.64409 5.60952 6.10659C4.1439 7.57222 3.69077 9.34409 3.5939 11.3441C3.49702 13.0691 3.51265 14.7785 3.51265 16.5003C3.51265 18.2222 3.49702 19.9347 3.5939 21.6566C3.69077 23.6566 4.14702 25.4316 5.60952 26.8941C7.07515 28.3597 8.84702 28.8128 10.847 28.9097C12.572 29.0066 14.2814 28.991 16.0033 28.991C17.7283 28.991 19.4376 29.0066 21.1595 28.9097C23.1595 28.8128 24.9345 28.3566 26.397 26.8941C27.8626 25.4285 28.3158 23.6566 28.4126 21.6566C28.5126 19.9347 28.4939 18.2253 28.4939 16.5003V16.5003ZM16.0001 22.9097C12.4533 22.9097 9.59077 20.0472 9.59077 16.5003C9.59077 12.9535 12.4533 10.091 16.0001 10.091C19.547 10.091 22.4095 12.9535 22.4095 16.5003C22.4095 20.0472 19.547 22.9097 16.0001 22.9097ZM22.672 11.3253C21.8439 11.3253 21.1751 10.6566 21.1751 9.82847C21.1751 9.00034 21.8439 8.33159 22.672 8.33159C23.5001 8.33159 24.1689 9.00034 24.1689 9.82847C24.1691 10.0251 24.1306 10.2199 24.0555 10.4016C23.9803 10.5833 23.8701 10.7484 23.731 10.8875C23.592 11.0265 23.4269 11.1368 23.2451 11.2119C23.0634 11.287 22.8687 11.3256 22.672 11.3253V11.3253Z" fill="white"/>
</g>
<defs>
<clipPath id="clip0_13_4769">
<rect width="32" height="32" fill="white" transform="translate(0 0.5)"/>
</clipPath>
</defs>
</svg>
