<svg width="39" height="39" viewBox="0 0 39 39" fill="none" xmlns="http://www.w3.org/2000/svg">
<g clip-path="url(#clip0_13_4772)">
<path d="M6.5 4.875H32.5C32.931 4.875 33.3443 5.0462 33.649 5.35095C33.9538 5.6557 34.125 6.06902 34.125 6.5V32.5C34.125 32.931 33.9538 33.3443 33.649 33.649C33.3443 33.9538 32.931 34.125 32.5 34.125H6.5C6.06902 34.125 5.6557 33.9538 5.35095 33.649C5.0462 33.3443 4.875 32.931 4.875 32.5V6.5C4.875 6.06902 5.0462 5.6557 5.35095 5.35095C5.6557 5.0462 6.06902 4.875 6.5 4.875ZM8.125 8.125V30.875H30.875V8.125H8.125ZM12.1875 14.625C11.541 14.625 10.921 14.3682 10.4639 13.9111C10.0068 13.454 9.75 12.834 9.75 12.1875C9.75 11.541 10.0068 10.921 10.4639 10.4639C10.921 10.0068 11.541 9.75 12.1875 9.75C12.834 9.75 13.454 10.0068 13.9111 10.4639C14.3682 10.921 14.625 11.541 14.625 12.1875C14.625 12.834 14.3682 13.454 13.9111 13.9111C13.454 14.3682 12.834 14.625 12.1875 14.625ZM10.5625 16.25H13.8125V28.4375H10.5625V16.25ZM19.5 16.9488C20.449 16.0306 21.5572 15.4375 22.75 15.4375C26.1154 15.4375 28.4375 18.1659 28.4375 21.5312V28.4375H25.1875V21.5312C25.1875 20.777 24.8879 20.0537 24.3546 19.5204C23.8213 18.9871 23.098 18.6875 22.3438 18.6875C21.5895 18.6875 20.8662 18.9871 20.3329 19.5204C19.7996 20.0537 19.5 20.777 19.5 21.5312V28.4375H16.25V16.25H19.5V16.9488Z" fill="white"/>
</g>
<defs>
<clipPath id="clip0_13_4772">
<rect width="39" height="39" fill="white"/>
</clipPath>
</defs>
</svg>
