<svg width="32" height="33" viewBox="0 0 32 33" fill="none" xmlns="http://www.w3.org/2000/svg">
<g clip-path="url(#clip0_13_4770)">
<path d="M30.8565 7.29756C29.7637 7.76899 28.5744 8.10827 27.3494 8.24042C28.6212 7.48483 29.5736 6.29113 30.028 4.88327C28.8345 5.59323 27.5271 6.09107 26.1637 6.3547C25.5938 5.74551 24.9046 5.2602 24.139 4.92901C23.3734 4.59783 22.5478 4.42786 21.7137 4.4297C18.3387 4.4297 15.6244 7.16542 15.6244 10.5226C15.6244 10.994 15.6815 11.4654 15.7744 11.919C10.7208 11.6547 6.21367 9.24042 3.21724 5.54399C2.67126 6.47654 2.38515 7.53837 2.38867 8.61899C2.38867 10.7333 3.46367 12.5976 5.10296 13.694C4.1369 13.6559 3.19347 13.3904 2.34939 12.919V12.994C2.34939 15.9547 4.44224 18.4083 7.23153 18.9726C6.70781 19.1086 6.16905 19.1782 5.62796 19.1797C5.23153 19.1797 4.85653 19.1404 4.47796 19.0868C5.24939 21.5011 7.49581 23.2547 10.1708 23.3118C8.07796 24.9511 5.45653 25.9154 2.6101 25.9154C2.09939 25.9154 1.62796 25.8976 1.13867 25.8404C3.83867 27.5726 7.04224 28.5726 10.4922 28.5726C21.6922 28.5726 27.8208 19.294 27.8208 11.2404C27.8208 10.9761 27.8208 10.7118 27.803 10.4476C28.9887 9.5797 30.028 8.5047 30.8565 7.29756Z" fill="white"/>
</g>
<defs>
<clipPath id="clip0_13_4770">
<rect width="32" height="32" fill="white" transform="translate(0 0.5)"/>
</clipPath>
</defs>
</svg>
